<svg xmlns="http://www.w3.org/2000/svg" viewBox="0 0 244.06 106.78"><defs><style>.cls-1{fill:#222221;}</style></defs><g id="Calque_2" data-name="Calque 2"><g id="Calque_3" data-name="Calque 3"><path class="cls-1" d="M41,23.49h4.57l20.4,45.75H59.25L53.19,55.76H33.79L28.1,69.24H21.41ZM50.51,50,43.18,33.49,36.37,50Z"/><path class="cls-1" d="M106.07,23.75h6.09V69.24h-6.54V33.85l-14,17.58h-1.2L76.28,33.85V69.24H69.77V23.75h6.16L91.05,42.43Z"/><path class="cls-1" d="M135.36,69.24H120V23.75h11.92a20.75,20.75,0,0,1,8.79,1.52,11.19,11.19,0,0,1,4.81,4.16,11.32,11.32,0,0,1,1.66,6.14q0,6.7-6.93,9.61a14.07,14.07,0,0,1,7.93,4.1,10.68,10.68,0,0,1,2.94,7.55,11.05,11.05,0,0,1-1.79,6.22A13,13,0,0,1,144,67.51,19.45,19.45,0,0,1,135.36,69.24Zm-3.29-39.69h-5.6V43.22h4.33q5.2,0,7.41-2a6.64,6.64,0,0,0,2.19-5.15Q140.4,29.55,132.07,29.55ZM132.56,49h-6.09V63.44h6.41q5.34,0,7.25-.83A6.88,6.88,0,0,0,143.19,60a6.73,6.73,0,0,0,1.15-3.77,6.41,6.41,0,0,0-1.22-3.81,7.28,7.28,0,0,0-3.46-2.58A21.91,21.91,0,0,0,132.56,49Z"/><path class="cls-1" d="M157.16,23.75H183v5.8H163.68V43.42H182.3v5.83H163.68V63.38h19.89v5.79H157.16Z"/><path class="cls-1" d="M192,69.24V23.75h11.4q6.9,0,10.95,3.42a11.45,11.45,0,0,1,4.06,9.25,11.8,11.8,0,0,1-2,6.87A14.36,14.36,0,0,1,211.13,48l11.52,21.23H214.9l-10.11-19.8h-6.25v19.8Zm8.47-39.95h-2V43.65H201c3.3,0,5.56-.29,6.79-.85a6.4,6.4,0,0,0,2.86-2.56,7.34,7.34,0,0,0,1-3.89,7,7,0,0,0-1.14-3.89A6.12,6.12,0,0,0,207.35,30,23.42,23.42,0,0,0,200.5,29.29Z"/><path class="cls-1" d="M242.45,1.61V105.16H1.61V1.61H242.45M244.06,0H0V106.78H244.06V0Z"/><path class="cls-1" d="M171.34,75.49h2l-4.16,9.59h-.64l-4.26-9.59h2l2.55,5.8Z"/><path class="cls-1" d="M175.72,71.52a1.06,1.06,0,0,1,.79.32,1.08,1.08,0,0,1,0,1.55,1.07,1.07,0,0,1-.79.33,1,1,0,0,1-.76-.33,1.06,1.06,0,0,1,0-1.54A1,1,0,0,1,175.72,71.52Zm-.92,4h1.86v9.43H174.8Z"/><path class="cls-1" d="M181.23,75.49v1.2a3.73,3.73,0,0,1,2.84-1.39,3.08,3.08,0,0,1,1.64.46A3,3,0,0,1,186.86,77a6,6,0,0,1,.4,2.52v5.39h-1.87V79.55a3.7,3.7,0,0,0-.44-2.07,1.7,1.7,0,0,0-1.48-.62,2.68,2.68,0,0,0-2.24,1.32v6.74h-1.91V75.49Z"/><path class="cls-1" d="M188.54,77l3.51-3.44v1.95h3v1.68h-3v4.62c0,1.07.44,1.61,1.34,1.61a4.17,4.17,0,0,0,2.12-.66v1.74a4.75,4.75,0,0,1-2.35.6,3.11,3.11,0,0,1-2.13-.74,2.13,2.13,0,0,1-.44-.51,2.72,2.72,0,0,1-.29-.74,8.11,8.11,0,0,1-.12-1.74V77.17h-1.64Z"/><path class="cls-1" d="M202.78,79.25v4q0,.48.33.48a2.34,2.34,0,0,0,1.06-.5v1.14a6.59,6.59,0,0,1-1,.56,2.36,2.36,0,0,1-.8.14c-.8,0-1.27-.31-1.41-.94a4.05,4.05,0,0,1-2.54.92,2.22,2.22,0,0,1-1.64-.65,2.19,2.19,0,0,1-.65-1.63,2.3,2.3,0,0,1,.64-1.6,4.21,4.21,0,0,1,1.82-1.11l2.39-.82v-.5a1.5,1.5,0,0,0-1.71-1.7,4.08,4.08,0,0,0-3,1.57v-2a3.89,3.89,0,0,1,3.13-1.28,3.63,3.63,0,0,1,2.45.8,2.55,2.55,0,0,1,.55.68,2.3,2.3,0,0,1,.31.86A11.35,11.35,0,0,1,202.78,79.25ZM201,83.05v-2.8l-1.26.49a4.08,4.08,0,0,0-1.34.76,1.32,1.32,0,0,0,.94,2.28A2.35,2.35,0,0,0,201,83.05Z"/><path class="cls-1" d="M205.33,78.75a2.89,2.89,0,0,1,1.11-2.39,4.71,4.71,0,0,1,3-.87h3.88v1.45h-1.9a4,4,0,0,1,.76,1,2.38,2.38,0,0,1,.22,1,2.85,2.85,0,0,1-.42,1.46,3,3,0,0,1-1.08,1.09,6.73,6.73,0,0,1-2.17.6c-.71.1-1.06.35-1.06.73a.61.61,0,0,0,.4.54,6.25,6.25,0,0,0,1.43.43,17,17,0,0,1,2.23.6,3,3,0,0,1,.9.61,2.33,2.33,0,0,1,.67,1.71,2.47,2.47,0,0,1-1.19,2.14,6.8,6.8,0,0,1-6.42,0,2.45,2.45,0,0,1-1.21-2.15c0-1.28.79-2.11,2.37-2.47-.63-.41-.94-.81-.94-1.2a1.1,1.1,0,0,1,.4-.83,2.64,2.64,0,0,1,1.1-.54A3.1,3.1,0,0,1,205.33,78.75Zm3.07,6.61a2.69,2.69,0,0,0-1.54.4,1.2,1.2,0,0,0-.6,1c0,1,.87,1.45,2.62,1.45a4.15,4.15,0,0,0,1.92-.36,1.13,1.13,0,0,0,.69-1c0-.44-.29-.8-.86-1.07A5.13,5.13,0,0,0,208.4,85.36Zm.44-8.25a1.8,1.8,0,0,0-1.29.51,1.62,1.62,0,0,0-.53,1.23,1.56,1.56,0,0,0,.52,1.21,1.92,1.92,0,0,0,1.32.47,1.84,1.84,0,0,0,1.32-.49,1.58,1.58,0,0,0,.53-1.21,1.6,1.6,0,0,0-.54-1.23A1.87,1.87,0,0,0,208.84,77.11Z"/><path class="cls-1" d="M222.82,80.37h-6.64a3.07,3.07,0,0,0,.91,2.15,3,3,0,0,0,2.16.8,5.58,5.58,0,0,0,3.4-1.15V84a6.45,6.45,0,0,1-1.7.82,7.38,7.38,0,0,1-2,.24,4.44,4.44,0,0,1-2.52-.64,4.65,4.65,0,0,1-1.54-1.74,5.28,5.28,0,0,1-.58-2.53,5,5,0,0,1,1.22-3.5,4.07,4.07,0,0,1,3.17-1.35,3.75,3.75,0,0,1,3,1.31,5.29,5.29,0,0,1,1.12,3.52Zm-6.6-1.12H221a2.6,2.6,0,0,0-.67-1.72,2.09,2.09,0,0,0-1.59-.61,2.29,2.29,0,0,0-1.65.61A3,3,0,0,0,216.22,79.25Z"/></g></g></svg>