<svg xmlns="http://www.w3.org/2000/svg" viewBox="0 0 307.84 134.68"><defs><style>.cls-1{fill:#222221;}</style></defs><g id="Calque_2" data-name="Calque 2"><g id="Header"><path class="cls-1" d="M51.65,29.63h5.77l25.72,57.7h-8.4l-7.65-17H42.62l-7.17,17H27ZM63.71,63,54.46,42.24,45.88,63Z"/><path class="cls-1" d="M133.79,30h7.68V87.33h-8.26V42.69L115.57,64.86h-1.51L96.21,42.69V87.33H88V30h7.78l19.06,23.56Z"/><path class="cls-1" d="M170.73,87.33H151.3V30h15q7.11,0,11.09,1.91a14.15,14.15,0,0,1,6.08,5.25,14.39,14.39,0,0,1,2.09,7.75q0,8.46-8.74,12.11a17.73,17.73,0,0,1,10,5.17,13.48,13.48,0,0,1,3.72,9.53,14,14,0,0,1-2.26,7.84,16.35,16.35,0,0,1-6.63,5.63A24.47,24.47,0,0,1,170.73,87.33Zm-4.15-50.06h-7.06V54.52H165q6.57,0,9.34-2.51a8.33,8.33,0,0,0,2.77-6.49Q177.09,37.27,166.58,37.27Zm.62,24.56h-7.68V80h8.09q6.73,0,9.13-1a8.74,8.74,0,0,0,3.86-3.26,8.55,8.55,0,0,0,1.46-4.77,8.1,8.1,0,0,0-1.54-4.8,9.19,9.19,0,0,0-4.37-3.25C174.26,62.18,171.27,61.83,167.2,61.83Z"/><path class="cls-1" d="M198.23,30h32.52v7.31H206.44V54.76h23.49v7.35H206.44V79.93h25.09v7.31h-33.3Z"/><path class="cls-1" d="M242.21,87.33V30h14.37q8.71,0,13.82,4.31a14.46,14.46,0,0,1,5.11,11.66A15,15,0,0,1,273,54.6a18.09,18.09,0,0,1-6.71,5.95l14.53,26.78h-9.77l-12.76-25h-7.88v25Zm10.68-50.39h-2.47V55.05h3.12q6.24,0,8.57-1.07a8,8,0,0,0,3.61-3.22A9.37,9.37,0,0,0,267,45.85a8.84,8.84,0,0,0-1.43-4.91,7.76,7.76,0,0,0-4.05-3.1Q258.92,36.94,252.89,36.94Z"/><path class="cls-1" d="M143,98.75v8.68h-2.38v-6.65A5.17,5.17,0,0,0,140.1,98a2.08,2.08,0,0,0-1.86-.79,2.89,2.89,0,0,0-1.36.34,6.24,6.24,0,0,0-1.41,1.2v8.68h-2.36v-12h2.36v1.58A5.15,5.15,0,0,1,139,95.24a3.87,3.87,0,0,1,3.52,2.16,5.35,5.35,0,0,1,4-2.19,3.67,3.67,0,0,1,2.87,1.28,5.72,5.72,0,0,1,1.12,3.88v7.06h-2.36v-7.08a3.74,3.74,0,0,0-.61-2.29,2.09,2.09,0,0,0-1.76-.79A3.62,3.62,0,0,0,143,98.75Z"/><path class="cls-1" d="M159.81,95.45a6.21,6.21,0,0,1,4.54,1.76,5.93,5.93,0,0,1,1.81,4.42,5.61,5.61,0,0,1-1.84,4.3,6.49,6.49,0,0,1-4.61,1.71,6.25,6.25,0,0,1-4.5-1.73,6.13,6.13,0,0,1,0-8.72A6.37,6.37,0,0,1,159.81,95.45Zm-.13,2.13a3.71,3.71,0,0,0-2.79,1.12,3.88,3.88,0,0,0-1.1,2.84,3.77,3.77,0,0,0,1.12,2.81,4,4,0,0,0,2.88,1.08,3.85,3.85,0,0,0,2.85-1.1,3.78,3.78,0,0,0,1.11-2.81,3.71,3.71,0,0,0-1.16-2.82A4,4,0,0,0,159.68,97.58Z"/><path class="cls-1" d="M176.46,95.47H179l-5.29,12.17h-.8l-5.41-12.17h2.59l3.23,7.36Z"/><path class="cls-1" d="M182.36,90.44a1.36,1.36,0,0,1,1,.4,1.32,1.32,0,0,1,.42,1,1.35,1.35,0,0,1-.42,1,1.34,1.34,0,0,1-1,.41,1.32,1.32,0,0,1-1-.42,1.36,1.36,0,0,1,0-2A1.32,1.32,0,0,1,182.36,90.44Zm-1.17,5h2.37v12h-2.37Z"/><path class="cls-1" d="M189.69,95.47V97a4.76,4.76,0,0,1,3.6-1.75,3.91,3.91,0,0,1,2.08.58,3.74,3.74,0,0,1,1.47,1.58,7.65,7.65,0,0,1,.5,3.19v6.84H195v-6.81a4.67,4.67,0,0,0-.56-2.62,2.14,2.14,0,0,0-1.87-.79,3.41,3.41,0,0,0-2.85,1.68v8.54h-2.42v-12Z"/><path class="cls-1" d="M200.38,99.61a3.66,3.66,0,0,1,1.39-3,6,6,0,0,1,3.82-1.11h4.93v1.85H208.1a5,5,0,0,1,1,1.3,3.14,3.14,0,0,1,.27,1.34,3.64,3.64,0,0,1-.53,1.84,3.8,3.8,0,0,1-1.38,1.38,8.25,8.25,0,0,1-2.75.77c-.89.13-1.33.44-1.33.92a.79.79,0,0,0,.49.69,8.45,8.45,0,0,0,1.82.55,20.27,20.27,0,0,1,2.83.75,3.62,3.62,0,0,1,1.14.78,2.92,2.92,0,0,1,.85,2.16,3.12,3.12,0,0,1-1.51,2.72,8.67,8.67,0,0,1-8.14,0,3.14,3.14,0,0,1-1.53-2.73c0-1.63,1-2.67,3-3.14-.79-.51-1.19-1-1.19-1.52a1.39,1.39,0,0,1,.51-1,3.24,3.24,0,0,1,1.39-.69A3.93,3.93,0,0,1,200.38,99.61Zm3.89,8.38a3.44,3.44,0,0,0-2,.51,1.51,1.51,0,0,0-.76,1.3c0,1.23,1.11,1.85,3.33,1.85a5.33,5.33,0,0,0,2.43-.46,1.44,1.44,0,0,0,.87-1.31c0-.55-.37-1-1.09-1.36A6.54,6.54,0,0,0,204.27,108Zm.55-10.46a2.23,2.23,0,0,0-1.63.65,2,2,0,0,0-.68,1.56,2,2,0,0,0,.66,1.52,2.59,2.59,0,0,0,3.35,0,2,2,0,0,0,.67-1.54,2.05,2.05,0,0,0-.68-1.56A2.37,2.37,0,0,0,204.82,97.53Z"/><path class="cls-1" d="M230.25,98.75v8.68h-2.38v-6.65a5.29,5.29,0,0,0-.53-2.78,2.11,2.11,0,0,0-1.86-.79,2.83,2.83,0,0,0-1.36.34,6.24,6.24,0,0,0-1.41,1.2v8.68h-2.37v-12h2.37v1.58a5.12,5.12,0,0,1,3.53-1.81,3.89,3.89,0,0,1,3.53,2.16,5.33,5.33,0,0,1,4-2.19,3.65,3.65,0,0,1,2.87,1.28,5.72,5.72,0,0,1,1.13,3.88v7.06h-2.37v-7.08a3.68,3.68,0,0,0-.61-2.29,2.08,2.08,0,0,0-1.76-.79A3.62,3.62,0,0,0,230.25,98.75Z"/><path class="cls-1" d="M249,107.43V105.9a5.48,5.48,0,0,1-1.73,1.28,4.4,4.4,0,0,1-1.93.46,4.12,4.12,0,0,1-2.09-.56,3.68,3.68,0,0,1-1.44-1.54,7.59,7.59,0,0,1-.49-3.22V95.47h2.37v6.82a4.71,4.71,0,0,0,.54,2.63,2.18,2.18,0,0,0,1.89.75A3.47,3.47,0,0,0,249,104V95.47h2.36v12Z"/><path class="cls-1" d="M254.4,106.58V104a11.27,11.27,0,0,0,2,1.14,4.75,4.75,0,0,0,1.76.43,2.24,2.24,0,0,0,1.28-.36,1.07,1.07,0,0,0,.53-.87,1.18,1.18,0,0,0-.35-.87,7.48,7.48,0,0,0-1.48-1,10.53,10.53,0,0,1-3-2.18,3.14,3.14,0,0,1-.71-2,2.78,2.78,0,0,1,1.07-2.25,4.27,4.27,0,0,1,2.77-.87,7.59,7.59,0,0,1,3.6,1v2.34a7.26,7.26,0,0,0-3.45-1.28,1.94,1.94,0,0,0-1.11.29.92.92,0,0,0-.42.78,1.11,1.11,0,0,0,.38.79,6,6,0,0,0,1.35.91l.84.48c2,1.13,3,2.38,3,3.75a3,3,0,0,1-1.15,2.41,4.51,4.51,0,0,1-3,.94,7.21,7.21,0,0,1-1.89-.22A14.18,14.18,0,0,1,254.4,106.58Z"/><path class="cls-1" d="M266.8,90.44a1.36,1.36,0,0,1,1,.4,1.32,1.32,0,0,1,.42,1,1.35,1.35,0,0,1-.42,1,1.34,1.34,0,0,1-1,.41,1.32,1.32,0,0,1-1-.42,1.34,1.34,0,0,1,0-2A1.32,1.32,0,0,1,266.8,90.44Zm-1.17,5H268v12h-2.37Z"/><path class="cls-1" d="M280.74,104.64V107a10,10,0,0,1-3.49.66,5.74,5.74,0,0,1-6.15-6.12A6.34,6.34,0,0,1,272.73,97,5.56,5.56,0,0,1,277,95.24a7.57,7.57,0,0,1,1.66.17,11.28,11.28,0,0,1,1.82.66v2.52a6.33,6.33,0,0,0-3.33-1.14,3.4,3.4,0,0,0-2.63,1.12,4.12,4.12,0,0,0-1,2.87,3.84,3.84,0,0,0,1.12,2.91,4.11,4.11,0,0,0,3,1.08A7.82,7.82,0,0,0,280.74,104.64Z"/><path class="cls-1" d="M305.8,2v130.6H2V2H305.8m2-2H0V134.68H307.84V0Z"/></g></g></svg>